<?xml version="1.0" standalone="no"?>
<!DOCTYPE svg PUBLIC "-//W3C//DTD SVG 20010904//EN"
 "http://www.w3.org/TR/2001/REC-SVG-20010904/DTD/svg10.dtd">
<svg version="1.0" xmlns="http://www.w3.org/2000/svg"
 width="452.000000pt" height="452.000000pt" viewBox="0 0 452.000000 452.000000"
 preserveAspectRatio="xMidYMid meet">
<metadata>
Created by potrace 1.11, written by Peter Selinger 2001-2013
</metadata>
<g transform="translate(0.000000,452.000000) scale(0.100000,-0.100000)"
fill="#000000" stroke="none">
<path d="M1367 4135 c-92 -23 -138 -90 -141 -201 l-1 -74 -220 -1 c-251 0
-289 -8 -378 -73 -63 -46 -112 -113 -138 -188 -16 -50 -18 -131 -18 -1429 -1
-1324 0 -1378 18 -1431 39 -113 118 -199 220 -240 l56 -23 1000 -3 1000 -2 37
-58 c46 -71 154 -181 235 -238 82 -59 213 -120 315 -146 87 -22 270 -30 373
-16 64 8 206 53 270 85 268 135 467 407 513 703 13 80 8 268 -8 335 -59 246
-203 459 -392 583 l-57 37 -3 910 -3 910 -32 65 c-40 84 -97 141 -181 182
l-66 33 -235 5 -235 5 -2 71 c-2 77 -16 114 -61 156 -93 88 -248 55 -298 -65
-8 -20 -15 -66 -15 -102 l0 -65 -659 0 -659 0 -3 78 c-3 65 -9 85 -31 120 -46
68 -122 97 -201 77z"/>
</g>
</svg>
