<?xml version="1.0" encoding="UTF-8" standalone="no"?>
<svg
   xmlns:dc="http://purl.org/dc/elements/1.1/"
   xmlns:cc="http://creativecommons.org/ns#"
   xmlns:rdf="http://www.w3.org/1999/02/22-rdf-syntax-ns#"
   xmlns:svg="http://www.w3.org/2000/svg"
   xmlns="http://www.w3.org/2000/svg"
   viewBox="0 0 702.61334 171.49333"
   height="171.49333"
   width="702.61334"
   xml:space="preserve"
   id="svg2"
   version="1.1"><metadata
     id="metadata8"><rdf:RDF><cc:Work
         rdf:about=""><dc:format>image/svg+xml</dc:format><dc:type
           rdf:resource="http://purl.org/dc/dcmitype/StillImage" /></cc:Work></rdf:RDF></metadata><defs
     id="defs6" /><g
     transform="matrix(1.3333333,0,0,-1.3333333,0,171.49333)"
     id="g10"><g
       transform="scale(0.1)"
       id="g12"><path
         id="path14"
         style="fill:#ffffff;fill-opacity:1;fill-rule:nonzero;stroke:none"
         d="m 533.535,336.375 c -3.906,0 -9.14,1.305 -15.652,3.934 -5.238,1.929 -9.625,0.484 -13.203,-4.414 -3.582,-4.895 -2.45,-8.661 3.422,-11.243 5.222,-2.625 12.386,-4.746 21.527,-6.363 9.117,-1.641 18.906,-2.793 29.34,-3.422 10.429,-0.652 20.195,-0.972 29.336,-0.972 9.797,0 17.625,0 23.492,0 H 749.73 c 5.211,0 8.805,1.449 10.758,4.394 1.953,2.926 0.992,6.02 -2.914,9.285 -5.89,5.891 -12.586,9.606 -20.07,11.246 -7.5,1.633 -14.848,2.774 -22.02,3.418 -3.273,0.649 -7.336,1.149 -12.226,1.469 -4.735,0.313 -7.699,1.133 -9.063,2.352 h -143.14 c -4.555,-6.457 -10.403,-9.684 -17.52,-9.684" /><path
         id="path16"
         style="fill:#ffffff;fill-opacity:1;fill-rule:nonzero;stroke:none"
         d="m 52.2305,345.18 c -7.8242,-3.254 -18.9336,-6.207 -33.2617,-8.805 -5.8594,-1.309 -8.6563,-4.387 -8.3204,-9.281 0.3125,-4.899 3.4258,-7.672 9.2969,-8.321 39.7735,-1.953 80.2067,-2.918 121.3047,-2.918 39.77,0 79.242,0.965 118.375,2.918 6.508,0.649 9.453,3.907 8.805,9.793 -0.657,5.86 -4.25,8.461 -10.774,7.809 -16.304,-1.309 -29.508,-0.156 -39.613,3.426 -4.758,1.672 -8.941,3.797 -12.684,6.258 H 53.7734 c -0.5781,-0.254 -0.9453,-0.621 -1.5429,-0.879" /><path
         id="path18"
         style="fill:#ffffff;fill-opacity:1;fill-rule:nonzero;stroke:none"
         d="m 1096.02,342.746 c -4.56,-4.266 -10.12,-6.371 -16.62,-6.371 -3.92,0 -8.17,0.977 -12.72,2.945 l -6.85,-17.605 c 16.29,-3.914 33.42,-6.371 51.36,-7.352 17.92,-0.972 35.69,-1.449 53.31,-1.449 22.83,0 45.65,0.637 68.49,1.953 22.82,1.297 45.32,2.602 67.51,3.906 6.49,0.649 9.42,3.735 8.79,9.29 -0.65,5.539 -4.27,7.976 -10.76,7.324 -21.78,-1.242 -40.04,2.402 -54.99,10.672 h -144.65 c -0.97,-1.075 -1.8,-2.321 -2.87,-3.313" /><path
         id="path20"
         style="fill:#ffffff;fill-opacity:1;fill-rule:nonzero;stroke:none"
         d="m 1466.29,335.895 c -8.15,-4.895 -16.45,-7.329 -24.95,-7.329 -0.65,0 -2.43,0.141 -5.37,0.481 -2.93,0.312 -5.06,-0.481 -6.36,-2.434 -2.62,-2.625 -3.27,-5.238 -1.93,-7.84 0.62,-1.304 2.26,-3.277 4.86,-5.859 l 203.49,-0.992 c 6.51,0 9.94,2.441 10.27,7.328 0.32,4.898 -2.77,7.984 -9.31,9.316 -9.76,1.301 -19.7,3.735 -29.83,7.329 -5.86,2.066 -9.83,5.546 -12.29,10.164 h -114.52 c -4.57,-3.786 -9.26,-7.278 -14.06,-10.164" /><path
         id="path22"
         style="fill:#ffffff;fill-opacity:1;fill-rule:nonzero;stroke:none"
         d="m 183.313,383.824 c -1.958,11.399 -2.942,24.957 -2.942,40.614 v 16.726 H 77.6758 v -19.672 c 0,-16.304 -0.3516,-29.355 -0.9922,-39.137 -0.5078,-7.457 -2.2461,-13.398 -4.6367,-18.578 H 190.137 c -3.004,5.801 -5.492,12.254 -6.824,20.047" /><path
         id="path24"
         style="fill:#ffffff;fill-opacity:1;fill-rule:nonzero;stroke:none"
         d="m 731.148,1018.23 c 5.872,1.3 8.633,4.39 8.309,9.28 -0.34,4.92 -3.426,7.67 -9.285,8.32 -37.844,2.6 -75.817,4.24 -113.984,4.9 -38.141,0.65 -76.465,0.97 -114.95,0.97 -3.269,0 -6.199,-0.97 -8.789,-2.92 -2.621,-1.96 -3.582,-4.25 -2.929,-6.85 1.293,-8.5 6.668,-13.7 16.132,-15.66 9.453,-1.95 19.078,-3.28 28.86,-3.9 3.269,0 6.851,-0.67 10.758,-1.96 3.21,-0.87 5.941,-2.18 8.445,-3.7 h 140.762 c 10.152,4.88 22.293,8.74 36.671,11.52" /><path
         id="path26"
         style="fill:#ffffff;fill-opacity:1;fill-rule:nonzero;stroke:none"
         d="m 568.266,397.516 c -0.993,-9.461 -2.946,-18.739 -5.86,-27.879 -0.676,-2.094 -1.554,-3.907 -2.316,-5.86 h 124.172 c -1.824,5.614 -3.508,11.559 -4.969,18.106 -1.969,8.812 -3.578,17.265 -4.883,25.43 -1.312,8.14 -1.953,13.824 -1.953,17.125 v 16.726 H 569.723 v -19.672 c 0,-6.539 -0.493,-14.523 -1.457,-23.976" /><path
         id="path28"
         style="fill:#ffffff;fill-opacity:1;fill-rule:nonzero;stroke:none"
         d="m 238.098,1016.27 c 5.871,0 8.957,2.78 9.3,8.32 0.313,5.55 -2.453,8.64 -8.328,9.29 -37.824,3.25 -75.484,5.41 -112.992,6.35 -37.5038,0.98 -75.4882,1.47 -113.953,1.47 -4.57422,0 -7.98437,-1.31 -10.28125,-3.9 -2.289063,-2.62 -2.445313,-5.56 -0.47656,-8.82 2.58984,-6.51 6.98828,-10.75 13.20311,-12.71 6.1875,-1.95 13.8555,-3.28 22.9844,-3.9 4.5547,-0.67 9.2851,-1.48 14.1914,-2.44 3.1172,-0.63 5.9492,-1.81 8.6641,-3.22 H 205.023 c 9.848,5.76 20.832,9.02 33.075,9.56" /><path
         id="path30"
         style="fill:#ffffff;fill-opacity:1;fill-rule:nonzero;stroke:none"
         d="M 180.371,646.914 H 77.6758 V 562.566 H 180.371 v 84.348" /><path
         id="path32"
         style="fill:#ffffff;fill-opacity:1;fill-rule:nonzero;stroke:none"
         d="M 180.371,544.875 H 77.6758 v -86.02 H 180.371 v 86.02" /><path
         id="path34"
         style="fill:#ffffff;fill-opacity:1;fill-rule:nonzero;stroke:none"
         d="M 181.355,876.207 H 77.6758 V 783.012 H 181.355 v 93.195" /><path
         id="path36"
         style="fill:#ffffff;fill-opacity:1;fill-rule:nonzero;stroke:none"
         d="M 180.371,690.504 H 569.723 V 664.605 H 672.457 V 765.289 H 569.723 V 739.414 H 181.355 v 25.875 H 77.6758 V 664.605 H 180.371 v 25.899" /><path
         id="path38"
         style="fill:#ffffff;fill-opacity:1;fill-rule:nonzero;stroke:none"
         d="m 672.457,458.855 v 86.02 H 569.723 v -86.02 h 102.734" /><path
         id="path40"
         style="fill:#ffffff;fill-opacity:1;fill-rule:nonzero;stroke:none"
         d="m 181.355,964.445 c 0,9.598 2.043,17.68 5.696,24.551 H 74.4766 c 2.0976,-6.406 3.1992,-14.898 3.1992,-25.543 V 892.691 H 181.355 v 71.754" /><path
         id="path42"
         style="fill:#ffffff;fill-opacity:1;fill-rule:nonzero;stroke:none"
         d="m 569.723,646.914 v -84.348 h 102.734 v 84.348 H 569.723" /><path
         id="path44"
         style="fill:#ffffff;fill-opacity:1;fill-rule:nonzero;stroke:none"
         d="m 569.723,876.207 v -93.195 h 102.734 v 93.195 H 569.723" /><path
         id="path46"
         style="fill:#ffffff;fill-opacity:1;fill-rule:nonzero;stroke:none"
         d="M 676.48,988.996 H 565.945 c 2.352,-7.758 3.778,-16.141 3.778,-25.543 v -70.762 h 102.734 v 71.754 c 0,9.879 1.359,18.032 4.023,24.551" /><path
         id="path48"
         style="fill:#ffffff;fill-opacity:1;fill-rule:nonzero;stroke:none"
         d="m 1275.53,749.211 c 3.2,5.293 6.79,10.727 10.12,16.078 h -70.78 c -4.52,-7.93 -9.08,-16.039 -13.7,-24.398 -8.79,-15.996 -16.78,-31.786 -23.94,-47.442 -2.64,3.246 -4.28,5.52 -4.9,6.852 -0.66,1.297 -3.27,5.515 -7.83,12.711 -9.04,15.343 -19.31,32.859 -30.66,52.277 h -100.37 c 6.43,-10.332 13.01,-20.691 19.02,-30.762 15.02,-25.168 27.65,-48.41 38.12,-69.922 h 141.22 c 0.75,1.825 1.33,3.504 2.12,5.348 10.42,24.145 24.3,50.539 41.58,79.258" /><path
         id="path50"
         style="fill:#ffffff;fill-opacity:1;fill-rule:nonzero;stroke:none"
         d="m 1218.33,458.855 v 86.02 h -104.69 v -86.02 h 104.69" /><path
         id="path52"
         style="fill:#ffffff;fill-opacity:1;fill-rule:nonzero;stroke:none"
         d="m 1112.15,378.949 c -0.69,-5.465 -1.98,-10.426 -3.56,-15.172 h 117.34 c -4.9,9 -7.6,20.239 -7.6,34.223 v 43.164 h -104.69 v -42.176 c 0,-5.875 -0.51,-12.566 -1.49,-20.039" /><path
         id="path54"
         style="fill:#ffffff;fill-opacity:1;fill-rule:nonzero;stroke:none"
         d="m 1009.94,1011.38 c 2.58,2.6 5.52,5.21 8.81,7.83 3.9,2.6 6.85,4.9 8.8,6.86 3.26,3.25 4.06,6.5 2.45,9.76 -1.63,3.26 -5.05,4.9 -10.29,4.9 -33.261,0 -66.011,-0.16 -98.304,-0.5 -32.285,-0.32 -64.734,-1.8 -97.343,-4.4 -6.512,-0.65 -9.938,-3.4 -10.278,-8.32 -0.324,-4.89 2.449,-7.98 8.34,-9.28 5.785,-1.7 12.664,-5.61 20.508,-11.52 h 164.307 c 0.67,1.72 1.61,3.29 3,4.67" /><path
         id="path56"
         style="fill:#ffffff;fill-opacity:1;fill-rule:nonzero;stroke:none"
         d="m 1510.81,1019.21 -2.92,16.62 c -15.01,1.3 -30.5,2.29 -46.48,2.95 -15.99,0.65 -32.12,0.99 -48.43,0.99 -15,0 -29.85,-0.34 -44.49,-0.99 -14.69,-0.66 -29.53,-1.65 -44.53,-2.95 -6.54,-0.65 -10.12,-3.26 -10.75,-7.81 -0.66,-4.59 1.95,-7.5 7.81,-8.81 5.87,-2.62 10.92,-6.36 15.17,-11.23 0.31,-0.38 0.43,-0.88 0.74,-1.27 h 150.14 c 8.72,5.94 16.68,10.13 23.74,12.5" /><path
         id="path58"
         style="fill:#ffffff;fill-opacity:1;fill-rule:nonzero;stroke:none"
         d="m 1225.23,646.914 h -126.37 c 9.7,-21.906 14.78,-38.523 14.78,-49.332 v -35.016 h 104.69 v 49.676 c 0,9.395 2.45,21.086 6.9,34.672" /><path
         id="path60"
         style="fill:#ffffff;fill-opacity:1;fill-rule:nonzero;stroke:none"
         d="m 1334.24,958.539 c -5.56,-13.039 -12.73,-27.238 -21.53,-42.555 -4.44,-7.695 -9.1,-15.48 -13.94,-23.293 h 76.19 c 7.56,9.481 15.2,18.797 22.85,27.711 21.85,25.434 42.71,47.121 62.61,65.043 1.45,1.305 2.75,2.34 4.16,3.551 h -122.1 c -0.18,-7.719 -2.89,-17.816 -8.24,-30.457" /><path
         id="path62"
         style="fill:#ffffff;fill-opacity:1;fill-rule:nonzero;stroke:none"
         d="m 1283.85,869.539 c -10.44,-15.656 -20.21,-30.004 -29.35,-43.051 -5.24,-7.195 -10.27,-14.355 -15.15,-21.515 -4.9,-7.164 -8.98,-13.387 -12.24,-18.598 -0.65,-1.074 -1.31,-2.266 -1.96,-3.363 h 71.64 c 11.51,17.855 23.46,35.886 36.46,54.246 9.51,13.476 19.1,26.39 28.76,38.949 h -73.86 c -1.47,-2.227 -2.82,-4.434 -4.3,-6.668" /><path
         id="path64"
         style="fill:#ffffff;fill-opacity:1;fill-rule:nonzero;stroke:none"
         d="M 1009.79,988.996 H 862.867 c 1.274,-1.23 2.422,-2.226 3.754,-3.551 18.594,-18.566 38.789,-41.41 60.652,-68.468 6.344,-7.86 12.668,-15.993 19.028,-24.286 h 114.029 c -14.07,25.02 -26.38,47.559 -36.69,67.336 -6.45,12.344 -10.95,21.836 -13.85,28.969" /><path
         id="path66"
         style="fill:#ffffff;fill-opacity:1;fill-rule:nonzero;stroke:none"
         d="M 1069.65,876.207 H 958.711 c 11.363,-15.391 22.742,-31.465 34.105,-48.25 10.314,-15.258 20.124,-30.199 29.584,-44.945 h 101.05 c -1.8,3.09 -3.54,6.035 -5.39,9.25 -16.75,28.543 -32.83,56.5 -48.41,83.945" /><path
         id="path68"
         style="fill:#ffffff;fill-opacity:1;fill-rule:nonzero;stroke:none"
         d="m 1522.55,403.883 c -3.25,-7.832 -7.67,-16.16 -13.2,-24.934 -3.35,-5.324 -7.18,-10.332 -11.25,-15.172 h 94.31 c 0.85,8.805 3.45,21.559 7.9,38.637 3.25,12.418 7.02,25.414 11.05,38.75 h -74.67 c -4.7,-12.457 -9.33,-25.023 -14.14,-37.281" /><path
         id="path70"
         style="fill:#ffffff;fill-opacity:1;fill-rule:nonzero;stroke:none"
         d="m 1570.99,536.438 c -8.9,-26.293 -18.14,-52.051 -27.58,-77.583 h 73.51 c 1.18,3.735 2.21,7.274 3.46,11.059 7.84,23.793 15.81,46.949 23.96,69.457 0.72,1.934 1.34,3.633 2.05,5.504 h -72.49 c -0.98,-2.832 -1.95,-5.574 -2.91,-8.437" /><path
         id="path72"
         style="fill:#ffffff;fill-opacity:1;fill-rule:nonzero;stroke:none"
         d="m 1721.22,765.289 h -68.35 c -11.82,-32.098 -23.8,-64.027 -35.42,-96.316 -0.53,-1.422 -1.04,-2.922 -1.58,-4.368 h 71.73 c 11.38,33.063 22.22,65.215 32.07,95.852 0.51,1.578 1.05,3.246 1.55,4.832" /><path
         id="path74"
         style="fill:#ffffff;fill-opacity:1;fill-rule:nonzero;stroke:none"
         d="m 2049.84,385.32 c -13.7,29.321 -27.56,60.457 -41.58,93.403 -14.04,32.922 -27.87,66.672 -41.58,101.25 -13.69,34.543 -26.89,68.789 -39.61,102.691 -12.73,33.922 -24.96,66.547 -36.69,97.852 -8.48,22.797 -17.46,45.007 -26.9,66.519 -9.47,21.512 -18.1,42.715 -25.93,63.574 -1.31,2.602 -2.44,5.887 -3.42,9.793 -0.97,3.926 -2.79,7.844 -5.38,11.75 -7.18,20.207 -15.32,42.059 -24.46,65.52 -9.14,23.498 -19.25,41.418 -30.32,53.808 -2.63,3.26 -5.56,3.92 -8.81,1.95 -3.28,-1.95 -5.55,-4.22 -6.85,-6.84 -24.13,-63.258 -47.92,-126.188 -71.42,-188.797 -9.29,-24.797 -18.31,-49.875 -27.51,-74.781 h 67.51 c 9.86,30.707 19.96,62.269 30.43,95.324 l 80.23,-235.75 h -157.51 c 0.53,1.469 0.98,2.855 1.49,4.328 h -71.96 c -9.94,-27.644 -19.8,-55.758 -29.58,-84.348 h 72.99 c 4.33,11.375 8.2,20.946 11.41,28.164 h 192.72 c 15,-41.097 30.48,-82.171 46.47,-123.273 15.97,-41.066 31.8,-82.137 47.43,-123.269 l -34.21,-17.575 c -3.91,-3.285 -4.91,-6.23 -2.95,-8.812 1.97,-2.621 5.54,-4.25 10.76,-4.887 13.7,-1.305 30.66,-1.617 50.89,-0.992 20.21,0.68 37.49,0.992 51.84,0.992 19.55,0 38.8,-0.172 57.71,-0.508 18.91,-0.312 37.83,0.196 56.74,1.489 v 17.585 c -18.91,1.301 -36.69,5.872 -53.31,13.7 -16.63,7.84 -29.52,21.199 -38.64,40.14" /><path
         id="path76"
         style="fill:#ffffff;fill-opacity:1;fill-rule:nonzero;stroke:none"
         d="m 2554.12,701.75 c -6.21,-10.113 -13.86,-18.746 -23.01,-25.906 -9.14,-7.188 -20.87,-11.438 -35.19,-12.715 -14.36,-1.324 -27.08,-1.949 -38.15,-1.949 -28.06,0 -55.13,1.949 -81.2,5.859 v 321.844 c 17.6,5.875 35.85,8.789 54.77,8.789 24.79,0 46.48,-5.695 65.07,-17.094 18.59,-11.433 34.05,-26.113 46.45,-44.043 12.39,-17.945 21.69,-38.305 27.9,-61.137 6.18,-22.832 9.3,-45.66 9.3,-68.46 0,-11.758 -0.85,-23.817 -2.47,-36.211 -1.61,-12.375 -4.38,-24.461 -8.3,-36.2 -3.92,-11.726 -8.98,-22.66 -15.17,-32.777 z m 286.13,-356.078 c -24.13,12.73 -47.8,29.996 -70.89,51.844 -23.18,21.851 -45.35,46.636 -66.54,74.355 -21.21,27.715 -41.59,54.606 -61.14,80.703 -11.74,15.653 -23.32,31.305 -34.74,46.961 -11.42,15.649 -22.35,29.012 -32.76,40.106 14.35,13.703 28.19,28.871 41.57,45.507 13.36,16.602 25.28,34.372 35.71,53.286 10.42,18.925 18.9,38.316 25.43,58.218 6.51,19.899 9.8,39.938 9.8,60.176 0,4.547 -0.2,9.453 -0.5,14.664 -0.35,5.223 -1.14,9.434 -2.45,12.711 -7.83,32.606 -19.9,58.86 -36.19,78.754 -16.3,19.887 -35.7,35.207 -58.21,45.983 -22.5,10.76 -46.96,17.93 -73.38,21.53 -26.41,3.58 -53.31,5.36 -80.69,5.36 h -51.85 c -5.89,0 -11.61,-0.15 -17.12,-0.48 -5.55,-0.34 -11.26,-0.48 -17.13,-0.48 -10.43,0 -20.53,-0.17 -30.33,-0.51 -9.77,-0.31 -20.21,-0.15 -31.29,0.51 h -64.59 -17.6 c -4.57,0 -7.82,-1.15 -9.77,-3.43 -1.97,-2.29 -1.97,-5.05 0,-8.32 1.95,-6.53 6.19,-10.75 12.71,-12.71 6.5,-1.95 14.34,-3.28 23.49,-3.92 4.53,-0.66 9.12,-1.45 13.69,-2.44 4.54,-0.98 8.79,-2.94 12.71,-5.886 3.93,-2.922 7.18,-7.648 9.78,-14.187 2.6,-6.512 3.92,-15.313 3.92,-26.383 V 415.633 c 0,-15.656 -0.33,-28.539 -0.99,-38.656 -0.65,-10.114 -2.77,-18.098 -6.33,-23.957 -3.6,-5.86 -9.32,-10.446 -17.15,-13.7 -7.81,-3.281 -18.92,-6.218 -33.24,-8.82 -6.54,-1.305 -9.62,-4.398 -9.31,-9.285 0.32,-4.902 3.76,-7.664 10.28,-8.301 39.78,-1.965 79.56,-2.965 119.36,-2.965 39.77,0 79.55,0 119.35,0 5.19,0 8.79,1.66 10.76,4.918 1.96,3.254 0.97,6.508 -2.95,9.785 -5.87,5.215 -12.56,8.45 -20.04,9.774 -7.52,1.301 -14.85,2.289 -22.02,2.926 -3.27,0.668 -7.68,1.316 -13.21,1.968 -5.57,0.633 -9.94,1.614 -13.22,2.918 -1.93,1.301 -3.89,5.547 -5.86,12.735 -1.95,7.164 -3.9,15.152 -5.86,23.976 -1.97,8.774 -3.42,17.102 -4.41,24.934 -0.97,7.812 -1.46,13.359 -1.46,16.629 v 181.965 c 5.23,0.652 10.74,0.992 16.62,0.992 6.52,0 12.4,0 17.62,0 13.69,0 29.16,-1.332 46.46,-3.934 17.27,-2.629 31.78,-9.137 43.54,-19.562 15.64,-13.7 30.8,-30.485 45.48,-50.379 14.68,-19.934 29.51,-40.285 44.51,-61.145 15.01,-21.511 30.5,-42.73 46.47,-63.601 15.98,-20.891 33.26,-39.602 51.84,-56.243 18.6,-16.617 38.82,-30.003 60.68,-40.082 21.83,-10.132 46.43,-15.179 73.86,-15.179 16.94,0 33.57,1.941 49.87,5.867 16.31,3.906 31.95,9.453 46.95,16.644 l -5.85,16.618 c -24.79,-3.907 -49.26,0.48 -73.39,13.199" /><path
         id="path78"
         style="fill:#ffffff;fill-opacity:1;fill-rule:nonzero;stroke:none"
         d="m 3462.44,493.871 c -11.72,-24.129 -23.32,-45.32 -34.72,-63.586 -11.41,-18.246 -24.6,-33.418 -39.6,-45.476 -15.02,-12.079 -32.49,-21.032 -52.36,-26.922 -19.88,-5.86 -43.85,-8.801 -71.89,-8.801 -48.93,0 -93.76,10.117 -134.52,30.344 -40.77,20.211 -76.15,47.273 -106.15,81.207 -30.01,33.883 -53.33,72.691 -69.93,116.39 -16.63,43.7 -24.95,89.024 -24.95,135.985 0,45.004 6.98,85.902 21.05,122.785 13.99,36.828 33.88,68.133 59.66,93.887 25.74,25.757 56.74,45.832 92.91,60.175 36.23,14.351 76.81,21.521 121.81,21.521 27.4,0 53.14,-3.6 77.28,-10.76 24.14,-7.171 45.64,-17.948 64.56,-32.296 18.92,-14.332 34.88,-32.101 47.95,-53.301 13.03,-21.203 21.84,-45.828 26.43,-73.859 1.28,-5.223 4.86,-7.832 10.75,-7.832 6.52,0 10.42,2.609 11.72,7.832 5.21,29.348 9.45,58.84 12.74,88.52 3.23,29.695 5.21,59.527 5.86,89.526 0,5.86 -3.28,8.81 -9.78,8.81 -16.31,1.3 -32.95,3.09 -49.9,5.37 -16.97,2.29 -33.93,4.73 -50.85,7.34 -22.85,3.25 -45.99,6.37 -69.48,9.28 -23.48,2.95 -47.27,4.41 -71.41,4.41 -20.89,0 -44.19,-1.3 -69.95,-3.9 -25.75,-2.6 -51.37,-7.19 -76.8,-13.7 -25.42,-6.54 -49.56,-15.01 -72.39,-25.44 -22.83,-10.44 -41.74,-23.466 -56.74,-39.142 -40.42,-41.058 -71.55,-88.183 -93.41,-141.336 -21.85,-53.16 -32.78,-108.437 -32.78,-165.816 0,-53.496 9.29,-102.238 27.89,-146.281 18.59,-44.004 44.18,-81.828 76.79,-113.465 32.6,-31.625 71.57,-56.086 116.9,-73.352 45.32,-17.304 94.73,-25.925 148.2,-25.925 42.41,0 84.3,2.125 125.72,6.343 41.4,4.242 82.65,9.621 123.77,16.16 3.9,0 6.85,1.614 8.78,4.899 9.79,17.601 17.45,37.781 22.99,60.629 5.53,22.832 8.3,44.023 8.3,63.597 0,11.731 -0.95,23.125 -2.92,34.254 l -21.53,1.926" /><path
         id="path80"
         style="fill:#ffffff;fill-opacity:1;fill-rule:nonzero;stroke:none"
         d="m 4275.88,338.82 c -7.53,1.633 -14.84,2.774 -22.02,3.418 -3.26,0.649 -7.34,1.149 -12.23,1.469 -4.88,0.324 -7.98,1.133 -9.28,2.461 -2.62,0.625 -5.23,4.562 -7.83,11.719 -2.61,7.195 -4.89,15.172 -6.85,23.996 -1.97,8.812 -3.61,17.265 -4.89,25.43 -1.31,8.14 -1.96,13.824 -1.96,17.125 v 540.007 c 0,20.18 5.55,33.399 16.62,39.605 11.08,6.19 25.12,10.92 42.08,14.18 5.87,1.3 8.62,4.39 8.3,9.28 -0.31,4.92 -3.41,7.67 -9.28,8.32 -37.84,2.6 -75.82,4.24 -113.97,4.9 -38.16,0.65 -76.48,0.97 -114.94,0.97 -3.28,0 -6.21,-0.97 -8.82,-2.92 -2.62,-1.96 -3.56,-4.25 -2.92,-6.85 1.28,-8.5 6.66,-13.7 16.15,-15.66 9.44,-1.95 19.07,-3.28 28.84,-3.9 3.26,0 6.85,-0.67 10.75,-1.96 9.8,-2.63 16.31,-8.32 19.59,-17.121 3.24,-8.824 4.87,-18.769 4.87,-29.836 V 739.414 h -388.35 v 225.031 c 0,16.926 5.7,29.645 17.1,38.125 11.41,8.49 24.62,13.05 39.62,13.7 5.89,0 8.97,2.78 9.3,8.32 0.32,5.55 -2.45,8.64 -8.3,9.29 -37.85,3.25 -75.5,5.41 -113.01,6.35 -37.52,0.98 -75.49,1.47 -113.96,1.47 -4.56,0 -8,-1.31 -10.27,-3.9 -2.28,-2.62 -2.45,-5.56 -0.48,-8.82 2.58,-6.51 7,-10.75 13.2,-12.71 6.19,-1.95 13.84,-3.28 22.99,-3.9 4.55,-0.67 9.28,-1.48 14.19,-2.44 4.89,-0.99 9.28,-2.94 13.21,-5.88 3.91,-2.94 6.98,-7.675 9.28,-14.191 2.28,-6.527 3.42,-15.339 3.42,-26.406 V 421.492 c 0,-16.304 -0.35,-29.355 -0.96,-39.137 -0.69,-9.773 -2.95,-17.617 -6.86,-23.476 -3.92,-5.859 -9.79,-10.434 -17.6,-13.699 -7.84,-3.254 -18.95,-6.207 -33.27,-8.805 -5.87,-1.309 -8.64,-4.387 -8.31,-9.281 0.31,-4.899 3.42,-7.672 9.29,-8.321 39.77,-1.953 80.22,-2.918 121.28,-2.918 39.79,0 79.26,0.965 118.4,2.918 6.5,0.649 9.45,3.907 8.81,9.793 -0.67,5.86 -4.25,8.461 -10.77,7.809 -16.31,-1.309 -29.53,-0.156 -39.61,3.426 -10.14,3.586 -17.95,8.976 -23.5,16.133 -5.55,7.175 -9.29,16.476 -11.23,27.89 -1.96,11.399 -2.96,24.957 -2.96,40.614 v 266.066 h 389.35 V 421.492 c 0,-6.539 -0.47,-14.523 -1.46,-23.976 -0.98,-9.461 -2.94,-18.739 -5.87,-27.879 -2.94,-9.145 -6.69,-16.965 -11.24,-23.469 -4.59,-6.535 -10.44,-9.793 -17.61,-9.793 -3.92,0 -9.15,1.305 -15.66,3.934 -5.22,1.929 -9.62,0.484 -13.2,-4.414 -3.6,-4.895 -2.44,-8.661 3.42,-11.243 5.23,-2.625 12.37,-4.746 21.52,-6.363 9.13,-1.641 18.9,-2.793 29.34,-3.422 10.43,-0.652 20.21,-0.972 29.36,-0.972 9.77,0 17.61,0 23.46,0 h 137.96 c 5.21,0 8.77,1.449 10.76,4.394 1.96,2.926 0.95,6.02 -2.93,9.285 -5.88,5.891 -12.58,9.606 -20.06,11.246" /><path
         id="path82"
         style="fill:#ffffff;fill-opacity:1;fill-rule:nonzero;stroke:none"
         d="m 4588.39,338.82 c -7.15,0.981 -14.32,1.489 -21.48,1.489 -3.28,0 -7.53,0.625 -12.73,1.929 -5.24,1.301 -9.45,2.602 -12.72,3.93 -1.98,2.609 -4.08,7.645 -6.35,15.148 -2.31,7.508 -4.41,15.493 -6.39,24.004 -1.94,8.434 -3.56,16.43 -4.86,23.946 -1.32,7.5 -1.98,12.867 -1.98,16.132 v 539.047 c 0,20.18 5.54,33.551 16.64,40.075 11.09,6.54 25.42,11.41 43.02,14.69 6.56,1.31 9.5,4.39 8.83,9.29 -0.67,4.89 -4.25,7.65 -10.75,8.32 -18.93,1.3 -37.54,1.61 -55.76,0.98 -18.28,-0.67 -36.54,-0.98 -54.8,-0.98 -18.91,0 -37.66,0.14 -56.24,0.48 -18.6,0.31 -37.36,-0.17 -56.25,-1.47 -5.87,-0.65 -8.8,-3.59 -8.8,-8.8 0,-5.22 2.93,-8.15 8.8,-8.8 16.93,-1.96 31.62,-6.68 44.03,-14.18 12.36,-7.503 18.56,-21.034 18.56,-40.597 V 429.332 c 0,-6.535 -0.49,-14.551 -1.46,-23.992 -0.97,-9.465 -2.93,-18.742 -5.87,-27.863 -2.91,-9.145 -6.68,-16.985 -11.23,-23.497 -4.59,-6.515 -10.45,-9.792 -17.61,-9.792 -1.96,0 -7.34,-1.106 -16.13,-3.395 -8.83,-2.313 -14.86,-2.773 -18.12,-1.473 -2.61,1.301 -5.2,1.133 -7.81,-0.5 -2.62,-1.64 -4.59,-3.754 -5.87,-6.347 -1.34,-2.606 -1.96,-5.239 -1.96,-7.821 0,-2.625 1.3,-4.582 3.9,-5.879 4.55,-1.953 18.42,-2.46 41.57,-1.476 23.16,0.992 49.09,1.476 77.79,1.476 17.6,0 34.87,-0.171 51.85,-0.484 16.95,-0.336 32.27,-0.82 45.97,-1.469 13.7,-0.656 29,-1.324 45.97,-1.953 5.22,0 8.62,1.446 10.26,4.383 1.63,2.945 0.83,6.031 -2.43,9.316 -5.89,5.86 -12.39,9.274 -19.59,10.254" /><path
         id="path84"
         style="fill:#ffffff;fill-opacity:1;fill-rule:nonzero;stroke:none"
         d="m 4992.42,630.359 c -14.33,17.914 -30.64,35.039 -48.9,51.344 -18.26,16.274 -36.86,32.277 -55.77,47.949 -15.64,13.7 -31.14,27.032 -46.44,40.09 -15.34,13.059 -29.04,26.571 -41.1,40.606 -12.06,14.015 -21.68,28.535 -28.87,43.535 -7.17,15 -10.75,30.969 -10.75,47.922 0,16.304 2.9,31.148 8.79,44.527 5.86,13.359 13.85,24.934 23.98,34.731 10.1,9.765 21.85,17.265 35.21,22.497 13.36,5.21 27.53,7.82 42.53,7.82 15.67,0 30.18,-2.44 43.54,-7.33 13.4,-4.902 25.28,-11.925 35.72,-21.034 10.42,-9.145 18.44,-20.211 23.99,-33.262 5.5,-13.047 8.28,-27.731 8.28,-44.016 0,-4.582 2.6,-7.508 7.85,-8.8 5.2,-1.309 9.45,-0.34 12.7,2.914 9.15,12.398 14.36,27.878 15.66,46.48 1.31,18.566 1.94,36.684 1.94,54.288 v 35.21 c 0,4.56 -2.6,7.5 -7.81,8.81 -30,8.48 -62.27,12.73 -96.82,12.73 -24.83,0 -51.85,-3.28 -81.22,-9.8 -29.34,-6.51 -56.74,-16.8 -82.16,-30.8 -25.46,-14.04 -46.81,-31.801 -64.08,-53.317 -17.3,-21.523 -25.93,-47.297 -25.93,-77.305 0,-20.207 4.38,-39.933 13.21,-59.171 8.82,-19.25 20.38,-38.309 34.7,-57.235 14.36,-18.91 30.85,-37.492 49.43,-55.762 18.6,-18.242 37.3,-36.511 56.25,-54.777 v 0.985 c 16.94,-16.973 33.58,-33.594 49.89,-49.883 16.28,-16.325 30.79,-32.457 43.54,-48.446 12.71,-15.972 22.97,-32.129 30.83,-48.414 7.81,-16.304 11.71,-32.629 11.71,-48.91 0,-16.972 -4.07,-32.285 -12.22,-45.988 -8.16,-13.699 -18.61,-25.434 -31.31,-35.211 -12.72,-9.793 -26.89,-17.285 -42.55,-22.504 -15.64,-5.211 -30.99,-7.812 -45.97,-7.812 -16.98,0 -33.29,2.601 -48.93,7.812 -15.67,5.219 -29.7,12.711 -42.06,22.504 -12.4,9.777 -22,21.68 -28.85,35.695 -6.86,14.028 -9.65,29.844 -8.35,47.465 l 0.99,15.656 c 0,2.571 -0.99,4.555 -2.91,5.86 -1.97,1.297 -4.58,1.953 -7.85,1.953 -2.6,0 -5.05,-0.485 -7.32,-1.465 -2.3,-0.984 -3.78,-2.785 -4.39,-5.359 -1.33,-5.266 -2.63,-10.957 -3.93,-17.133 -1.31,-6.219 -2.61,-12.899 -3.91,-20.063 -2.6,-9.14 -4.91,-18.257 -6.85,-27.398 -1.96,-9.141 -2.94,-18.906 -2.94,-29.34 0,-16.969 4.07,-31.32 12.24,-43.039 8.14,-11.742 18.4,-21.027 30.8,-27.879 12.38,-6.851 26.08,-11.75 41.1,-14.687 14.98,-2.914 29.36,-4.391 43.03,-4.391 28.05,0 57.38,5.059 88.06,15.152 30.65,10.098 58.7,24.305 84.12,42.563 25.44,18.258 46.48,40.109 63.13,65.558 16.6,25.414 24.9,53.778 24.9,85.082 0,23.497 -4.39,45.317 -13.18,65.555 -8.82,20.211 -20.38,39.289 -34.75,57.238" /><path
         id="path86"
         style="fill:#ffffff;fill-opacity:1;fill-rule:nonzero;stroke:none"
         d="m 5210.94,706.051 c -32.35,0 -58.65,-26.274 -58.65,-58.656 0,-32.387 26.3,-58.649 58.65,-58.649 32.36,0 58.65,26.262 58.65,58.649 0,32.382 -26.29,58.656 -58.65,58.656" /><path
         id="path88"
         style="fill:#ffffff;fill-opacity:1;fill-rule:nonzero;stroke:none"
         d="m 5210.94,998.156 c -32.35,0 -58.65,-26.273 -58.65,-58.707 0,-32.383 26.3,-58.617 58.65,-58.617 32.36,0 58.65,26.234 58.65,58.617 0,32.434 -26.29,58.707 -58.65,58.707" /><path
         id="path90"
         style="fill:#ffffff;fill-opacity:1;fill-rule:nonzero;stroke:none"
         d="m 5210.94,416.059 c -32.35,0 -58.65,-26.286 -58.65,-58.668 0,-32.395 26.3,-58.657 58.65,-58.657 32.36,0 58.65,26.262 58.65,58.657 0,32.382 -26.29,58.668 -58.65,58.668" /><path
         id="path92"
         style="fill:#ffffff;fill-opacity:1;fill-rule:nonzero;stroke:none"
         d="m 5210.94,1168.91 c 32.36,0 58.65,26.28 58.65,58.66 0,32.37 -26.29,58.65 -58.65,58.65 -32.35,0 -58.65,-26.28 -58.65,-58.65 0,-32.38 26.3,-58.66 58.65,-58.66" /><path
         id="path94"
         style="fill:#ffffff;fill-opacity:1;fill-rule:nonzero;stroke:none"
         d="m 4955.28,1168.86 c 32.37,0 58.64,26.3 58.64,58.68 0,32.35 -26.27,58.66 -58.64,58.66 -32.39,0 -58.7,-26.31 -58.7,-58.66 0,-32.38 26.31,-58.68 58.7,-58.68" /><path
         id="path96"
         style="fill:#ffffff;fill-opacity:1;fill-rule:nonzero;stroke:none"
         d="m 4708.61,1168.86 c 32.35,0 58.62,26.3 58.62,58.68 0,32.35 -26.27,58.66 -58.62,58.66 -32.38,0 -58.7,-26.31 -58.7,-58.66 0,-32.38 26.32,-58.68 58.7,-58.68" /><path
         id="path98"
         style="fill:#ffffff;fill-opacity:1;fill-rule:nonzero;stroke:none"
         d="m 4472.55,1168.86 c 32.38,0 58.66,26.3 58.66,58.68 0,32.35 -26.28,58.66 -58.66,58.66 -32.38,0 -58.65,-26.31 -58.65,-58.66 0,-32.38 26.27,-58.68 58.65,-58.68" /><path
         id="path100"
         style="fill:#ffffff;fill-opacity:1;fill-rule:nonzero;stroke:none"
         d="m 165.355,8.39063 c -7.843,-4.0586 -25.16,-8.121099 -47.074,-8.121099 -57.8943,0 -93.0622,36.249969 -93.0622,91.710969 0,60.0585 41.6601,96.3085 97.3942,96.3085 21.914,0 37.602,-4.598 44.367,-8.109 l -7.3,-26.52 c -8.66,3.789 -20.563,7.039 -35.715,7.039 -37.0666,0 -63.8478,-23.269 -63.8478,-67.0896 0,-40.0391 23.5351,-65.75 63.5738,-65.75 13.532,0 27.598,2.7109 36.254,6.7695 l 5.41,-26.23827" /><path
         id="path102"
         style="fill:#ffffff;fill-opacity:1;fill-rule:nonzero;stroke:none"
         d="m 390.969,93.3398 c 0,-37.0703 18.664,-66.5585 50.59,-66.5585 32.195,0 50.32,29.7578 50.32,67.9101 0,34.3596 -17.043,66.8206 -50.32,66.8206 -33.004,0 -50.59,-30.571 -50.59,-68.1722 z m 136.082,2.6993 C 527.051,34.8984 489.984,0 439.668,0 c -51.406,0 -83.867,39.2305 -83.867,92.8008 0,56.0002 35.168,95.4882 86.57,95.4882 53.297,0 84.68,-40.301 84.68,-92.2499" /><path
         id="path104"
         style="fill:#ffffff;fill-opacity:1;fill-rule:nonzero;stroke:none"
         d="M 734.262,2.98047 V 185.32 h 37.879 l 47.07,-78.191 C 831.387,86.8398 841.938,65.7383 850.32,45.9883 h 0.543 c -2.164,24.3515 -2.976,47.8828 -2.976,75.7497 V 185.32 H 878.73 V 2.98047 H 844.371 L 796.758,83.0508 C 785.121,103.07 772.949,125.531 764.023,146.09 l -0.816,-0.27 c 1.356,-23.539 1.629,-47.6091 1.629,-77.6403 V 2.98047 h -30.574" /><path
         id="path106"
         style="fill:#ffffff;fill-opacity:1;fill-rule:nonzero;stroke:none"
         d="m 1130.58,157.449 h -51.94 v 27.871 h 137.7 v -27.871 h -52.48 V 2.98047 h -33.28 V 157.449" /><path
         id="path108"
         style="fill:#ffffff;fill-opacity:1;fill-rule:nonzero;stroke:none"
         d="m 1518.24,83.8594 h -68.71 V 30.3008 h 76.83 V 2.98047 H 1416.25 V 185.32 H 1522.3 V 158 h -72.77 v -47.078 h 68.71 V 83.8594" /><path
         id="path110"
         style="fill:#ffffff;fill-opacity:1;fill-rule:nonzero;stroke:none"
         d="M 1734.12,2.98047 V 185.32 h 37.87 l 47.07,-78.191 c 12.18,-20.2892 22.73,-41.3907 31.12,-61.1407 h 0.54 c -2.17,24.3515 -2.98,47.8828 -2.98,75.7497 v 63.582 h 30.84 V 2.98047 h -34.36 l -47.61,80.07033 c -11.63,20.0192 -23.81,42.4802 -32.73,63.0392 l -0.82,-0.27 c 1.35,-23.539 1.63,-47.6091 1.63,-77.6403 V 2.98047 h -30.57" /><path
         id="path112"
         style="fill:#ffffff;fill-opacity:1;fill-rule:nonzero;stroke:none"
         d="m 2130.43,157.449 h -51.94 v 27.871 h 137.7 v -27.871 h -52.48 V 2.98047 h -33.28 V 157.449" /><path
         id="path114"
         style="fill:#ffffff;fill-opacity:1;fill-rule:nonzero;stroke:none"
         d="m 2649.83,39.2305 c 10.82,-6.2188 27.05,-11.6289 44.1,-11.6289 21.37,0 33.28,10 33.28,24.8789 0,13.8008 -9.2,21.9179 -32.46,30.3086 -30.04,10.8203 -49.24,26.7809 -49.24,53.0199 0,29.761 24.88,52.48 64.38,52.48 19.75,0 34.36,-4.32 43.83,-9.199 l -8.11,-26.781 c -6.5,3.519 -19.21,8.66 -36.25,8.66 -21.11,0 -30.31,-11.36 -30.31,-21.91 0,-14.071 10.55,-20.571 34.9,-30.028 31.66,-11.9099 47.08,-27.8708 47.08,-54.1091 0,-29.2227 -22.19,-54.652369 -69.26,-54.652369 -19.21,0 -39.23,5.410159 -49.24,11.359369 l 7.3,27.6016" /><path
         id="path116"
         style="fill:#ffffff;fill-opacity:1;fill-rule:nonzero;stroke:none"
         d="m 3071.58,83.8594 h -68.72 V 30.3008 h 76.84 V 2.98047 H 2969.59 V 185.32 h 106.05 V 158 h -72.78 v -47.078 h 68.72 V 83.8594" /><path
         id="path118"
         style="fill:#ffffff;fill-opacity:1;fill-rule:nonzero;stroke:none"
         d="m 3320.46,102.262 h 19.75 c 22.45,0 36.52,11.91 36.52,30.027 0,20.02 -14.07,29.223 -35.71,29.223 -10.55,0 -17.32,-0.813 -20.56,-1.621 z m -33.01,80.617 c 12.44,2.172 31.11,3.793 50.32,3.793 26.24,0 44.1,-4.332 56.27,-14.613 10.01,-8.387 15.7,-21.098 15.7,-36.52 0,-23.539 -15.97,-39.4999 -33.01,-45.7187 v -0.8086 c 12.99,-4.8711 20.83,-17.5898 25.43,-35.1719 5.68,-22.7304 10.55,-43.8281 14.33,-50.85933 h -34.35 c -2.71,5.41016 -7.03,20.28123 -12.18,43.00783 -5.14,23.8125 -13.79,31.3906 -32.73,31.9336 h -16.77 V 2.98047 h -33.01 V 182.879" /><path
         id="path120"
         style="fill:#ffffff;fill-opacity:1;fill-rule:nonzero;stroke:none"
         d="M 3662.67,2.98047 3603.69,185.32 h 36.25 l 24.89,-82.781 c 7.04,-22.9999 12.99,-44.3671 17.86,-66.5585 h 0.54 c 4.87,21.6406 11.36,43.8281 18.66,66.0075 l 26.52,83.332 h 35.44 L 3700.81,2.98047 h -38.14" /><path
         id="path122"
         style="fill:#ffffff;fill-opacity:1;fill-rule:nonzero;stroke:none"
         d="M 3995.41,185.32 V 2.98047 h -33.27 V 185.32 h 33.27" /><path
         id="path124"
         style="fill:#ffffff;fill-opacity:1;fill-rule:nonzero;stroke:none"
         d="m 4342.77,8.39063 c -7.85,-4.0586 -25.16,-8.121099 -47.08,-8.121099 -57.89,0 -93.06,36.249969 -93.06,91.710969 0,60.0585 41.67,96.3085 97.39,96.3085 21.91,0 37.61,-4.598 44.37,-8.109 l -7.3,-26.52 c -8.66,3.789 -20.57,7.039 -35.71,7.039 -37.06,0 -63.85,-23.269 -63.85,-67.0896 0,-40.0391 23.53,-65.75 63.57,-65.75 13.53,0 27.6,2.7109 36.25,6.7695 l 5.42,-26.23827" /><path
         id="path126"
         style="fill:#ffffff;fill-opacity:1;fill-rule:nonzero;stroke:none"
         d="m 4651.7,83.8594 h -68.72 V 30.3008 h 76.83 V 2.98047 h -110.1 V 185.32 h 106.05 V 158 h -72.78 v -47.078 h 68.72 V 83.8594" /><path
         id="path128"
         style="fill:#ffffff;fill-opacity:1;fill-rule:nonzero;stroke:none"
         d="m 4866.77,39.2305 c 10.82,-6.2188 27.05,-11.6289 44.09,-11.6289 21.38,0 33.28,10 33.28,24.8789 0,13.8008 -9.2,21.9179 -32.46,30.3086 -30.04,10.8203 -49.24,26.7809 -49.24,53.0199 0,29.761 24.88,52.48 64.39,52.48 19.74,0 34.35,-4.32 43.82,-9.199 l -8.11,-26.781 c -6.5,3.519 -19.21,8.66 -36.25,8.66 -21.1,0 -30.3,-11.36 -30.3,-21.91 0,-14.071 10.54,-20.571 34.89,-30.028 31.66,-11.9099 47.08,-27.8708 47.08,-54.1091 0,-29.2227 -22.19,-54.652369 -69.26,-54.652369 -19.21,0 -39.23,5.410159 -49.24,11.359369 l 7.31,27.6016" /></g></g></svg>